<svg width="206" height="135" viewBox="0 0 206 135" fill="none" xmlns="http://www.w3.org/2000/svg">
<g filter="url(#filter0_d_42_24)">
<path d="M2.81868 45.8209C3.12103 44.3092 3.32259 43.0998 3.42338 42.1927C3.52416 41.1849 3.17142 40.1267 2.36516 39.0181C2.76829 37.4056 3.07064 36.1458 3.2722 35.2388C3.57455 34.3317 3.62494 33.072 3.42338 31.4595C4.33041 28.8391 5.69097 26.6219 7.50505 24.8078C9.41991 22.9938 11.4859 21.482 13.7032 20.2726C15.9204 18.9625 18.2383 17.9043 20.6571 17.098C23.0759 16.191 25.3435 15.4351 27.4599 14.8304C27.4599 14.4273 27.2583 14.2257 26.8552 14.2257C26.4521 14.2257 26.3513 13.9738 26.5529 13.4698C31.9951 12.462 37.4373 11.0007 42.8796 9.08583C48.4226 7.17097 54.0664 5.45767 59.811 3.94594C65.5555 2.43421 71.4513 1.52717 77.4982 1.22482C83.5451 0.821695 89.8944 1.57756 96.546 3.49242C96.9492 4.70181 97.5035 5.8608 98.2089 6.9694C98.9144 8.07801 99.6199 9.18661 100.325 10.2952C101.132 11.303 101.837 12.3109 102.442 13.3187C103.046 14.3265 103.399 15.3847 103.5 16.4933C104.709 17.6019 105.667 18.8113 106.372 20.1215C107.179 21.3309 107.33 22.9938 106.826 25.1102C105.717 25.9164 104.558 26.7227 103.349 27.529C102.139 28.3352 100.88 29.0911 99.5695 29.7966C95.0343 28.6879 90.4991 28.2848 85.9639 28.5872C81.4287 28.8895 77.3471 29.2422 73.7189 29.6454C72.6103 28.436 71.3001 27.8817 69.7884 27.9825C68.2767 27.9825 66.6641 28.2344 64.9509 28.7383C63.3383 29.1415 61.7258 29.595 60.1133 30.0989C58.5008 30.502 56.9891 30.6028 55.5781 30.4012C54.4695 31.4091 53.0082 32.1145 51.1941 32.5177C49.38 32.82 47.4652 33.072 45.4495 33.2735C45.3487 33.7774 45.4495 34.1302 45.7519 34.3317C46.0542 34.5333 46.1046 34.9364 45.903 35.5411C46.6085 36.4482 47.5659 37.1033 48.7753 37.5064C49.9847 37.8087 51.1941 38.1111 52.4035 38.4134C53.7136 38.7158 54.8726 39.1693 55.8805 39.774C56.8883 40.2779 57.5434 41.1345 57.8457 42.3439C59.6598 42.4447 61.2219 42.9486 62.5321 43.8557C63.8422 44.6619 64.9509 45.6697 65.8579 46.8791C66.7649 48.0885 67.42 49.3987 67.8231 50.8096C68.2263 52.1198 68.3774 53.3292 68.2767 54.4378C68.6798 55.4456 69.0829 55.8487 69.486 55.6472C69.99 55.4456 70.5443 55.6976 71.149 56.403C71.5521 57.9148 72.4591 59.5273 73.8701 61.2406C75.3818 62.8531 76.5408 64.6168 77.3471 66.5316C77.5486 69.5551 77.6998 72.2762 77.8006 74.695C78.0021 77.1137 77.599 79.4821 76.5912 81.8001C74.8779 86.2345 72.4087 90.2154 69.1837 93.7428C65.9587 97.2702 62.2801 100.394 58.1481 103.116C54.1168 105.736 49.8335 108.054 45.2983 110.069C40.7631 111.984 36.2783 113.597 31.8439 114.907C31.4408 114.806 30.9369 114.806 30.3322 114.907C29.8283 115.008 29.7275 114.705 30.0299 114C29.1228 114.806 28.0646 115.31 26.8552 115.512C25.7466 115.713 24.4868 115.764 23.0759 115.663C21.7657 115.663 20.4052 115.613 18.9942 115.512C17.684 115.411 16.3739 115.461 15.0637 115.663C14.2575 114.857 13.5016 114.05 12.7961 113.244C12.1914 112.438 11.6875 111.48 11.2844 110.372C10.7805 110.271 10.5285 109.969 10.5285 109.465C10.6293 108.86 10.4277 108.558 9.92382 108.558C9.92382 108.155 9.97421 107.852 10.075 107.651C10.1758 107.449 10.2766 107.248 10.3773 107.046C10.7805 106.744 10.9316 106.542 10.8309 106.441C10.8309 106.24 10.6797 106.089 10.3773 105.988C10.1758 105.786 9.92382 105.585 9.62147 105.383C9.41991 105.182 9.36952 104.93 9.4703 104.627C9.97421 103.72 10.1254 102.662 9.92382 101.453C9.82304 100.142 9.72226 98.8323 9.62147 97.5221C9.52069 96.212 9.62147 95.0026 9.92382 93.894C10.2262 92.6846 11.0828 91.6768 12.4938 90.8705C16.6258 91.2736 20.5059 91.0721 24.1341 90.2658C27.863 89.4596 31.34 88.351 34.565 86.94C37.8909 85.5291 41.0151 84.0173 43.9378 82.4048C46.9612 80.6915 49.8839 79.1294 52.7058 77.7184C53.0082 76.7106 53.4617 75.854 54.0664 75.1485C54.7719 74.443 55.4773 73.7879 56.1828 73.1832C56.8883 72.4778 57.5434 71.7723 58.1481 71.0668C58.7528 70.2606 59.2063 69.3031 59.5086 68.1945C59.6094 67.7914 59.6094 67.4891 59.5086 67.2875C59.4078 67.0859 59.2567 66.9348 59.0551 66.834C58.8535 66.6324 58.652 66.4308 58.4504 66.2293C58.2488 66.0277 58.1481 65.7254 58.1481 65.3222C57.8457 65.2215 57.5434 65.1207 57.241 65.0199C57.0395 64.9191 56.8379 64.8687 56.6363 64.8687C54.016 63.5586 51.2445 62.45 48.3218 61.5429C45.3991 60.6359 42.93 59.6281 40.9143 58.5195C39.7049 59.3257 38.4955 59.5273 37.2862 59.1241C36.0768 58.721 34.6154 58.3179 32.9021 57.9148C28.6693 57.7132 24.638 57.3101 20.8083 56.7054C17.0794 56.1007 13.4512 55.0425 9.92382 53.5307C9.72226 52.926 9.4703 52.4221 9.16796 52.019C8.86561 51.5151 8.16013 51.3639 7.05153 51.5655C6.34606 50.5577 5.59019 49.6506 4.78393 48.8444C4.07846 47.9373 3.42338 46.9295 2.81868 45.8209ZM85.2856 103.37C85.4047 103.846 85.494 104.293 85.5536 104.71C85.6131 105.127 85.7024 105.573 85.8215 106.05C85.5833 106.645 85.3749 107.241 85.1962 107.836C85.0176 108.372 84.8389 108.908 84.6603 109.444C84.4816 109.861 84.3625 110.129 84.3029 110.248C84.2434 110.367 84.2136 110.457 84.2136 110.516C84.2136 110.576 84.2136 110.665 84.2136 110.784C84.2732 110.844 84.3029 111.082 84.3029 111.499L83.9456 112.571C83.6479 112.988 83.2905 113.315 82.8737 113.553C82.4568 113.792 82.0399 114 81.6231 114.179C81.5039 114.298 81.3253 114.387 81.0871 114.447C80.8489 114.566 80.6702 114.685 80.5511 114.804L80.2831 115.876L79.1218 116.055C78.1094 116.293 77.2459 116.412 76.5313 116.412H75.4593C74.7447 115.757 74.1789 115.251 73.762 114.893C73.3452 114.536 72.8985 114.208 72.4221 113.911C71.8266 113.077 71.499 112.481 71.4395 112.124C71.3799 111.707 71.2906 111.32 71.1715 110.963C71.0524 110.189 70.9035 109.682 70.7248 109.444L69.4742 108.194L70.5462 107.39L69.5636 105.692C70.2782 105.156 70.8142 104.769 71.1715 104.531C71.5288 104.293 71.8266 104.055 72.0648 103.816C72.303 103.519 72.571 103.161 72.8688 102.744C73.1665 102.328 73.6429 101.643 74.298 100.69L75.102 99.5286L76.2633 100.154C76.5015 100.333 77.0077 100.511 77.7819 100.69C78.6156 100.809 79.3303 100.928 79.9258 101.047C80.9382 101.345 81.891 101.583 82.7843 101.762C83.6776 101.881 84.3923 102.179 84.9283 102.655L85.2856 103.37Z" fill="white"/>
<path d="M111.059 111.848C108.136 109.631 105.718 106.859 103.803 103.533C101.989 100.208 100.527 96.6802 99.4188 92.9513C98.4109 89.2224 97.7055 85.3926 97.3023 81.4621C97 77.4308 96.8992 73.6011 97 69.973C97.907 67.2519 99.0156 64.7827 100.326 62.5655C101.636 60.2475 103.097 58.0807 104.71 56.065C106.322 53.9486 107.985 51.9834 109.699 50.1693C111.513 48.2544 113.276 46.3396 114.99 44.4247C115.594 44.4247 116.149 44.5759 116.653 44.8782C117.056 43.7696 117.66 42.8122 118.467 42.0059C119.273 41.1997 120.129 40.4942 121.037 39.8895C121.944 39.184 122.851 38.529 123.758 37.9243C124.665 37.2188 125.421 36.4125 126.025 35.5055C128.545 34.9008 130.762 34.0441 132.677 32.9355C134.693 31.8269 136.607 30.6176 138.421 29.3074C140.236 27.9972 142.1 26.7878 144.015 25.6792C145.93 24.5706 148.147 23.714 150.666 23.1093C151.574 22.1015 152.682 21.2448 153.992 20.5393C155.403 19.8339 156.764 19.1788 158.074 18.5741C159.485 17.9694 160.795 17.3143 162.004 16.6088C163.315 15.9034 164.373 14.9459 165.179 13.7366C165.784 14.5428 166.64 14.8452 167.749 14.6436C168.858 14.3412 169.865 14.0389 170.773 13.7366C171.377 13.6358 171.881 13.7366 172.284 14.0389C172.687 14.3412 173.04 14.694 173.342 15.0971C173.746 15.3995 174.048 15.601 174.249 15.7018C174.552 15.8026 174.854 15.5002 175.157 14.7948C175.963 14.8955 176.164 15.2483 175.761 15.853C175.459 16.4577 175.257 16.8608 175.157 17.0624C176.164 16.8608 176.971 17.0624 177.575 17.6671C178.281 18.171 179.339 18.5237 180.75 18.7253C181.254 19.2292 181.405 19.6323 181.203 19.9347C181.002 20.237 180.851 20.7409 180.75 21.4464C184.378 22.555 186.696 24.3187 187.704 26.7374C188.712 29.0554 188.812 31.5246 188.006 34.1449C187.2 36.6645 185.688 39.0329 183.471 41.2501C181.355 43.3665 178.986 44.7774 176.366 45.4829C173.242 46.2892 170.319 47.0954 167.598 47.9017C164.978 48.7079 162.408 49.615 159.888 50.6228C157.469 51.6306 155.151 52.84 152.934 54.251C150.818 55.5611 148.953 57.1233 147.341 58.9373C144.519 59.7436 141.949 60.8522 139.631 62.2631C137.414 63.6741 135.297 65.2362 133.282 66.9495C131.367 68.6628 129.502 70.4769 127.688 72.3917C125.874 74.2058 124.06 76.0199 122.246 77.834C122.246 79.5473 121.944 80.8574 121.339 81.7645C120.734 82.6715 120.079 83.5786 119.374 84.4856C119.575 86.4005 119.978 88.0634 120.583 89.4743C121.288 90.7845 121.994 92.145 122.699 93.556C130.762 95.9748 139.278 97.4865 148.248 98.0912C157.318 98.5951 166.288 98.8974 175.157 98.9982C176.064 100.208 177.071 101.367 178.18 102.475C179.389 103.483 180.448 104.541 181.355 105.65C182.362 106.758 183.118 108.069 183.622 109.58C184.227 110.991 184.378 112.705 184.076 114.72C182.362 116.434 180.498 118.096 178.482 119.709C176.467 121.221 174.451 122.732 172.435 124.244C171.528 124.345 170.42 124.345 169.11 124.244C167.9 124.143 166.59 124.093 165.179 124.093C163.869 124.093 162.508 124.194 161.097 124.395C159.787 124.496 158.527 124.798 157.318 125.302C150.969 125.101 144.468 124.345 137.817 123.035C131.165 121.624 125.017 119.961 119.374 118.046C118.265 116.736 117.106 115.526 115.897 114.418C114.687 113.208 113.075 112.352 111.059 111.848Z" fill="white"/>
<path d="M204.841 114.533C204.959 115.002 205.047 115.442 205.105 115.853C205.164 116.263 205.252 116.703 205.369 117.172C205.135 117.758 204.929 118.345 204.754 118.931C204.578 119.459 204.402 119.987 204.226 120.514C204.05 120.925 203.933 121.189 203.874 121.306C203.815 121.423 203.786 121.511 203.786 121.57C203.786 121.628 203.786 121.716 203.786 121.834C203.845 121.892 203.874 122.127 203.874 122.537L203.522 123.593C203.229 124.003 202.877 124.326 202.467 124.56C202.056 124.795 201.646 125 201.235 125.176C201.118 125.293 200.942 125.381 200.708 125.44C200.473 125.557 200.297 125.674 200.18 125.792L199.916 126.847L198.773 127.023C197.776 127.258 196.925 127.375 196.222 127.375H195.166C194.463 126.73 193.906 126.231 193.495 125.88C193.085 125.528 192.645 125.205 192.176 124.912C191.59 124.091 191.267 123.505 191.208 123.153C191.15 122.742 191.062 122.361 190.945 122.01C190.827 121.247 190.681 120.749 190.505 120.514L189.273 119.283L190.329 118.491L189.361 116.82C190.065 116.292 190.593 115.911 190.945 115.677C191.296 115.442 191.59 115.208 191.824 114.973C192.059 114.68 192.323 114.328 192.616 113.918C192.909 113.507 193.378 112.833 194.023 111.895L194.815 110.751L195.958 111.367C196.193 111.543 196.691 111.719 197.453 111.895C198.274 112.012 198.978 112.129 199.564 112.246C200.561 112.54 201.499 112.774 202.379 112.95C203.258 113.067 203.962 113.361 204.49 113.83L204.841 114.533Z" fill="white"/>
</g>
<defs>
<filter id="filter0_d_42_24" x="0.0472925" y="0.620117" width="205.322" height="133.708" filterUnits="userSpaceOnUse" color-interpolation-filters="sRGB">
<feFlood flood-opacity="0" result="BackgroundImageFix"/>
<feColorMatrix in="SourceAlpha" type="matrix" values="0 0 0 0 0 0 0 0 0 0 0 0 0 0 0 0 0 0 127 0" result="hardAlpha"/>
<feOffset dx="-2.31788" dy="6.95364"/>
<feComposite in2="hardAlpha" operator="out"/>
<feColorMatrix type="matrix" values="0 0 0 0 0 0 0 0 0 0 0 0 0 0 0 0 0 0 0.97 0"/>
<feBlend mode="normal" in2="BackgroundImageFix" result="effect1_dropShadow_42_24"/>
<feBlend mode="normal" in="SourceGraphic" in2="effect1_dropShadow_42_24" result="shape"/>
</filter>
</defs>
</svg>
